<?xml version="1.0" encoding="UTF-8" standalone="no"?>
<svg width="853px" height="460px" viewBox="0 0 853 460" version="1.1" xmlns="http://www.w3.org/2000/svg" xmlns:xlink="http://www.w3.org/1999/xlink" xmlns:sketch="http://www.bohemiancoding.com/sketch/ns">
    <!-- Generator: Sketch 3.0.4 (8053) - http://www.bohemiancoding.com/sketch -->
    <title>illo-new-issue-4-desktop</title>
    <desc>Created with Sketch.</desc>
    <defs></defs>
    <g id="Page-1" stroke="none" stroke-width="1" fill="none" fill-rule="evenodd" sketch:type="MSPage">
        <g id="illo-new-issue-4-desktop" sketch:type="MSLayerGroup" transform="translate(2.000000, 2.000000)">
            <g id="computer-+-computer-text" transform="translate(43.000000, 0.000000)" sketch:type="MSShapeGroup">
                <g id="computer" stroke="#FFFFFF" stroke-width="2" fill="#1AC2A9">
                    <path d="M245.778197,452.074941 C245.348411,454.242691 246.798803,456 248.992983,456 L357.007017,456 C359.212281,456 360.651565,454.242571 360.221803,452.074941 L343.156259,366 L262.843741,366 L245.778197,452.074941 Z" id="Rectangle-153"></path>
                    <rect id="Rectangle-122" x="-5.68434189e-14" y="0" width="587" height="390" rx="10"></rect>
                    <rect id="Rectangle-121" x="30" y="30" width="526" height="329"></rect>
                </g>
                <g id="Group" transform="translate(172.000000, 36.000000)" fill="#01A690">
                    <rect id="Rectangle-55" x="0" y="15" width="234" height="3"></rect>
                    <rect id="Rectangle-56" x="0" y="7" width="234" height="3"></rect>
                    <rect id="Rectangle-57" x="0" y="0" width="234" height="3"></rect>
                    <rect id="Rectangle-54" x="0" y="22" width="222" height="3"></rect>
                    <rect id="Rectangle-51" x="0" y="45" width="80" height="3"></rect>
                    <rect id="Rectangle-49" x="0" y="60" width="244" height="3"></rect>
                    <rect id="Rectangle-48" x="0" y="67" width="234" height="3"></rect>
                    <rect id="Rectangle-47" x="0" y="75" width="222" height="3"></rect>
                    <rect id="Rectangle-46" x="0" y="82" width="212" height="3"></rect>
                    <rect id="Rectangle-44" x="0" y="97" width="212" height="3"></rect>
                    <rect id="Rectangle-43" x="0" y="104" width="228" height="3"></rect>
                    <rect id="Rectangle-42" x="0" y="112" width="196" height="3"></rect>
                    <rect id="Rectangle-41" x="0" y="142" width="212" height="3"></rect>
                    <rect id="Rectangle-38" x="0" y="119" width="234" height="3"></rect>
                    <rect id="Rectangle-37" x="0" y="127" width="222" height="3"></rect>
                    <rect id="Rectangle-36" x="0" y="134" width="244" height="3"></rect>
                    <rect id="Rectangle-75" x="0" y="164" width="56" height="3"></rect>
                    <rect id="Rectangle-73" x="0" y="179" width="244" height="3"></rect>
                    <rect id="Rectangle-72" x="0" y="186" width="202" height="3"></rect>
                    <rect id="Rectangle-71" x="0" y="194" width="212" height="3"></rect>
                    <rect id="Rectangle-70" x="0" y="202" width="228" height="3"></rect>
                    <rect id="Rectangle-69" x="0" y="210" width="244" height="3"></rect>
                    <rect id="Rectangle-68" x="0" y="217" width="234" height="3"></rect>
                    <rect id="Rectangle-67" x="0" y="225" width="222" height="3"></rect>
                    <rect id="Rectangle-66" x="0" y="232" width="212" height="3"></rect>
                    <rect id="Rectangle-65" x="0" y="240" width="236" height="3"></rect>
                    <rect id="Rectangle-63" x="0" y="255" width="228" height="3"></rect>
                    <rect id="Rectangle-86" x="0" y="262" width="244" height="3"></rect>
                    <rect id="Rectangle-85" x="0" y="269" width="202" height="3"></rect>
                    <rect id="Rectangle-84" x="0" y="277" width="212" height="3"></rect>
                    <rect id="Rectangle-83" x="0" y="284" width="228" height="3"></rect>
                    <rect id="Rectangle-82" x="0" y="292" width="244" height="3"></rect>
                    <rect id="Rectangle-81" x="0" y="299" width="234" height="3"></rect>
                    <rect id="Rectangle-80" x="0" y="307" width="222" height="3"></rect>
                    <rect id="Rectangle-81" x="0" y="314" width="222" height="3"></rect>
                </g>
            </g>
            <g id="tablet-+-tablet-text" transform="translate(551.000000, 98.000000)" sketch:type="MSShapeGroup">
                <g id="tablet" stroke="#FFFFFF" stroke-width="2" fill="#1AC2A9">
                    <rect id="Rectangle-1" x="0" y="0" width="242" height="358" rx="5"></rect>
                    <rect id="Rectangle-2" x="19" y="34" width="205" height="296"></rect>
                    <rect id="Rectangle-17-copy" x="117" y="338" width="9" height="9" rx="40"></rect>
                </g>
                <g id="tablet-text" transform="translate(27.000000, 52.000000)" fill="#01A690">
                    <rect id="Rectangle-14" x="5.31669788e-14" y="0" width="59" height="3"></rect>
                    <rect id="Rectangle-13" x="5.31669788e-14" y="7" width="48" height="3"></rect>
                    <rect id="Rectangle-55" x="5.31669788e-14" y="22" width="181" height="3"></rect>
                    <rect id="Rectangle-54" x="5.31669788e-14" y="30" width="171" height="3"></rect>
                    <rect id="Rectangle-53" x="5.31669788e-14" y="37" width="188" height="3"></rect>
                    <rect id="Rectangle-52" x="5.31669788e-14" y="45" width="156" height="3"></rect>
                    <rect id="Rectangle-51" x="5.31669788e-14" y="52" width="164" height="3"></rect>
                    <rect id="Rectangle-50" x="5.31669788e-14" y="60" width="176" height="3"></rect>
                    <rect id="Rectangle-49" x="5.31669788e-14" y="67" width="188" height="3"></rect>
                    <rect id="Rectangle-48" x="5.31669788e-14" y="75" width="181" height="3"></rect>
                    <rect id="Rectangle-47" x="1.0628296e-13" y="82" width="171" height="3"></rect>
                    <rect id="Rectangle-46" x="5.31669788e-14" y="90" width="164" height="3"></rect>
                    <rect id="Rectangle-45" x="5.31669788e-14" y="97" width="181" height="3"></rect>
                    <rect id="Rectangle-44" x="5.31669788e-14" y="105" width="164" height="3"></rect>
                    <rect id="Rectangle-43" x="5.31669788e-14" y="112" width="176" height="3"></rect>
                    <rect id="Rectangle-42" x="5.31669788e-14" y="119" width="152" height="3"></rect>
                    <rect id="Rectangle-41" x="5.31669788e-14" y="149" width="164" height="3"></rect>
                    <rect id="Rectangle-40" x="5.31669788e-14" y="157" width="176" height="3"></rect>
                    <rect id="Rectangle-39" x="5.31669788e-14" y="164" width="188" height="3"></rect>
                    <rect id="Rectangle-38" x="5.31669788e-14" y="127" width="181" height="3"></rect>
                    <rect id="Rectangle-37" x="5.31669788e-14" y="134" width="171" height="3"></rect>
                    <rect id="Rectangle-36" x="5.31669788e-14" y="142" width="188" height="3"></rect>
                    <rect id="Rectangle-75" x="5.31669788e-14" y="173" width="181" height="3"></rect>
                    <rect id="Rectangle-74" x="5.31669788e-14" y="180" width="171" height="3"></rect>
                    <rect id="Rectangle-73" x="5.31669788e-14" y="188" width="188" height="3"></rect>
                    <rect id="Rectangle-72" x="5.31669788e-14" y="195" width="156" height="3"></rect>
                    <rect id="Rectangle-71" x="5.31669788e-14" y="202" width="164" height="3"></rect>
                    <rect id="Rectangle-70" x="5.31669788e-14" y="210" width="176" height="3"></rect>
                    <rect id="Rectangle-69" x="5.31669788e-14" y="217" width="188" height="3"></rect>
                    <rect id="Rectangle-68" x="5.31669788e-14" y="225" width="181" height="3"></rect>
                    <rect id="Rectangle-67" x="5.31669788e-14" y="232" width="171" height="3"></rect>
                    <rect id="Rectangle-66" x="5.31669788e-14" y="240" width="164" height="3"></rect>
                    <rect id="Rectangle-65" x="5.31669788e-14" y="247" width="181" height="3"></rect>
                    <rect id="Rectangle-64" x="5.31669788e-14" y="255" width="164" height="3"></rect>
                    <rect id="Rectangle-63" x="5.31669788e-14" y="262" width="176" height="3"></rect>
                </g>
            </g>
            <g id="print" transform="translate(0.000000, 151.000000)" sketch:type="MSShapeGroup">
                <rect id="Rectangle-3" stroke="#FFFFFF" stroke-width="2" fill="#1AC2A9" x="0" y="5.38458167e-15" width="227" height="305"></rect>
                <rect id="Rectangle-3" stroke="#FFFFFF" stroke-width="2" fill="#1AC2A9" x="22" y="5.38458167e-15" width="205" height="305"></rect>
                <polygon id="Polygon-1" stroke="#FFFFFF" stroke-width="2" fill="#1AC2A9" points="124 125 168 152.5 124 180 80 152.5 "></polygon>
                <rect id="Rectangle-13" fill="#FFFFFF" x="101" y="153" width="48" height="2"></rect>
                <rect id="Rectangle-14" fill="#FFFFFF" x="115" y="145" width="20" height="2"></rect>
            </g>
            <g id="ereader-+-ereader-text" transform="translate(438.000000, 196.000000)" sketch:type="MSShapeGroup">
                <g id="ereader" stroke="#FFFFFF" stroke-width="2" fill="#1AC2A9">
                    <rect id="Rectangle-7" x="0" y="0" width="176" height="260" rx="4"></rect>
                    <rect id="Rectangle-8" x="18" y="27" width="141" height="191"></rect>
                </g>
                <g id="ereader-text" transform="translate(27.000000, 44.000000)" fill="#01A690">
                    <rect id="Rectangle-11" x="0" y="0" width="59" height="3"></rect>
                    <rect id="Rectangle-12" x="0" y="7" width="48" height="3"></rect>
                    <rect id="Rectangle-16" x="0" y="22" width="110" height="3"></rect>
                    <rect id="Rectangle-17" x="0" y="30" width="105" height="3"></rect>
                    <rect id="Rectangle-18" x="0" y="37" width="115" height="3"></rect>
                    <rect id="Rectangle-25" x="0" y="45" width="89" height="3"></rect>
                    <rect id="Rectangle-24" x="0" y="52" width="100" height="3"></rect>
                    <rect id="Rectangle-23" x="0" y="60" width="108" height="3"></rect>
                    <rect id="Rectangle-22" x="0" y="67" width="115" height="3"></rect>
                    <rect id="Rectangle-21" x="0" y="75" width="110" height="3"></rect>
                    <rect id="Rectangle-20" x="0" y="82" width="105" height="3"></rect>
                    <rect id="Rectangle-19" x="0" y="90" width="100" height="3"></rect>
                    <rect id="Rectangle-32" x="0" y="97" width="111" height="3"></rect>
                    <rect id="Rectangle-31" x="0" y="105" width="100" height="3"></rect>
                    <rect id="Rectangle-30" x="0" y="113" width="108" height="3"></rect>
                    <rect id="Rectangle-29" x="0" y="120" width="93" height="3"></rect>
                    <rect id="Rectangle-35" x="0" y="150" width="100" height="3"></rect>
                    <rect id="Rectangle-34" x="0" y="158" width="108" height="3"></rect>
                    <rect id="Rectangle-33" x="0" y="165" width="115" height="3"></rect>
                    <rect id="Rectangle-28" x="0" y="128" width="110" height="3"></rect>
                    <rect id="Rectangle-27" x="0" y="135" width="105" height="3"></rect>
                    <rect id="Rectangle-26" x="0" y="143" width="115" height="3"></rect>
                </g>
            </g>
            <g id="phone-text-+-phone" transform="translate(750.000000, 270.000000)" sketch:type="MSShapeGroup">
                <g id="phone" stroke="#FFFFFF" stroke-width="2" fill="#1AC2A9">
                    <rect id="Rectangle-5" x="0" y="0" width="99" height="186" rx="4"></rect>
                    <rect id="Rectangle-6" x="11" y="25" width="77" height="138"></rect>
                    <rect id="Rectangle-17" x="45" y="170" width="9" height="9" rx="40"></rect>
                </g>
                <g id="phone-text" transform="translate(17.000000, 40.000000)" fill="#01A690">
                    <rect id="Rectangle-11" x="0" y="0" width="59" height="3"></rect>
                    <rect id="Rectangle-12" x="0" y="7" width="48" height="3"></rect>
                    <rect id="Rectangle-16" x="0" y="24" width="60" height="3"></rect>
                    <rect id="Rectangle-17" x="0" y="32" width="57" height="3"></rect>
                    <rect id="Rectangle-18" x="0" y="39" width="63" height="3"></rect>
                    <rect id="Rectangle-25" x="0" y="47" width="49" height="3"></rect>
                    <rect id="Rectangle-24" x="0" y="54" width="55" height="3"></rect>
                    <rect id="Rectangle-23" x="0" y="62" width="59" height="3"></rect>
                    <rect id="Rectangle-22" x="0" y="69" width="63" height="3"></rect>
                    <rect id="Rectangle-21" x="0" y="77" width="60" height="3"></rect>
                    <rect id="Rectangle-20" x="0" y="84" width="57" height="3"></rect>
                    <rect id="Rectangle-19" x="0" y="92" width="55" height="3"></rect>
                    <rect id="Rectangle-32" x="0" y="99" width="61" height="3"></rect>
                    <rect id="Rectangle-31" x="0" y="107" width="55" height="3"></rect>
                    <rect id="Rectangle-30" x="0" y="114" width="59" height="3"></rect>
                </g>
            </g>
        </g>
    </g>
</svg>