<?xml version="1.0" encoding="UTF-8" standalone="no"?>
<svg width="929px" height="511px" viewBox="0 0 929 511" version="1.1" xmlns="http://www.w3.org/2000/svg" xmlns:xlink="http://www.w3.org/1999/xlink" xmlns:sketch="http://www.bohemiancoding.com/sketch/ns">
    <!-- Generator: Sketch 3.0.4 (8053) - http://www.bohemiancoding.com/sketch -->
    <title>illo-new-issue-4</title>
    <desc>Created with Sketch.</desc>
    <defs></defs>
    <g id="Page-1" stroke="none" stroke-width="1" fill="none" fill-rule="evenodd" sketch:type="MSPage">
        <g id="illo-new-issue-4" sketch:type="MSLayerGroup" transform="translate(2.000000, 2.000000)">
            <g id="laptop-+-laptop-text" transform="translate(137.000000, 0.000000)" sketch:type="MSShapeGroup">
                <g id="laptop" stroke-width="2" stroke="#FFFFFF" fill="#1AC2A9">
                    <g id="Rectangle-119-+-Rectangle-120-+-Rectangle-121">
                        <g id="Rectangle-119-+-Rectangle-120">
                            <rect id="Rectangle-120" x="0" y="0" width="698" height="480"></rect>
                            <rect id="Rectangle-119" x="0" y="467" width="698" height="40"></rect>
                        </g>
                        <rect id="Rectangle-121" x="20" y="28" width="655" height="410"></rect>
                    </g>
                </g>
                <g id="laptop-text" transform="translate(197.000000, 36.000000)" fill="#01AB94">
                    <rect id="Rectangle-55" x="0" y="0" width="293.11234" height="4"></rect>
                    <rect id="Rectangle-54" x="0" y="10" width="277.268429" height="4"></rect>
                    <rect id="Rectangle-51" x="0" y="40" width="100" height="4"></rect>
                    <rect id="Rectangle-49" x="0" y="60" width="304.995272" height="4"></rect>
                    <rect id="Rectangle-48" x="0" y="70" width="293.11234" height="4"></rect>
                    <rect id="Rectangle-47" x="0" y="80" width="277.268429" height="4"></rect>
                    <rect id="Rectangle-46" x="0" y="90" width="265.385497" height="4"></rect>
                    <rect id="Rectangle-44" x="0" y="110" width="265.385497" height="4"></rect>
                    <rect id="Rectangle-43" x="0" y="120" width="285.190384" height="4"></rect>
                    <rect id="Rectangle-42" x="0" y="130" width="245.580609" height="4"></rect>
                    <rect id="Rectangle-41" x="0" y="170" width="265.385497" height="4"></rect>
                    <rect id="Rectangle-38" x="0" y="140" width="293.11234" height="4"></rect>
                    <rect id="Rectangle-37" x="0" y="150" width="277.268429" height="4"></rect>
                    <rect id="Rectangle-36" x="0" y="160" width="304.995272" height="4"></rect>
                    <rect id="Rectangle-75" x="0" y="200" width="70.0268388" height="4"></rect>
                    <rect id="Rectangle-73" x="0" y="220" width="304.995272" height="4"></rect>
                    <rect id="Rectangle-72" x="0" y="230" width="252.956349" height="4"></rect>
                    <rect id="Rectangle-71" x="0" y="240" width="265.385497" height="4"></rect>
                    <rect id="Rectangle-70" x="0" y="250" width="285.190384" height="4"></rect>
                    <rect id="Rectangle-69" x="0" y="260" width="304.995272" height="4"></rect>
                    <rect id="Rectangle-68" x="0" y="270" width="293.11234" height="4"></rect>
                    <rect id="Rectangle-67" x="0" y="280" width="277.268429" height="4"></rect>
                    <rect id="Rectangle-66" x="0" y="290" width="265.385497" height="4"></rect>
                    <rect id="Rectangle-65" x="0" y="300" width="295.092828" height="4"></rect>
                    <rect id="Rectangle-63" x="0" y="320" width="285.190384" height="4"></rect>
                    <rect id="Rectangle-86" x="0" y="330" width="304.995272" height="4"></rect>
                    <rect id="Rectangle-85" x="0" y="340" width="252.956349" height="4"></rect>
                    <rect id="Rectangle-84" x="0" y="350" width="265.385497" height="4"></rect>
                    <rect id="Rectangle-83" x="0" y="360" width="285.190384" height="4"></rect>
                    <rect id="Rectangle-82" x="0" y="370" width="304.995272" height="4"></rect>
                    <rect id="Rectangle-81" x="0" y="380" width="293.11234" height="4"></rect>
                    <rect id="Rectangle-80" x="0" y="390" width="277.268429" height="4"></rect>
                </g>
            </g>
            <g id="tablet-+-tablet-text" transform="translate(601.000000, 28.000000)" sketch:type="MSShapeGroup">
                <g id="tablet" stroke="#FFFFFF" stroke-width="2" fill="#1AC2A9">
                    <rect id="Rectangle-1" x="0" y="0" width="324" height="479" rx="5"></rect>
                    <rect id="Rectangle-2" x="25" y="45" width="274" height="395"></rect>
                    <rect id="Rectangle-17-copy" x="156" y="453" width="12" height="12" rx="40"></rect>
                </g>
                <g id="tablet-text" transform="translate(36.000000, 70.000000)" fill="#01AB94">
                    <rect id="Rectangle-14" x="0" y="0" width="79" height="4"></rect>
                    <rect id="Rectangle-13" x="0" y="10" width="64" height="4"></rect>
                    <rect id="Rectangle-55" x="0" y="30" width="242.178064" height="4"></rect>
                    <rect id="Rectangle-54" x="0" y="40" width="229.087358" height="4"></rect>
                    <rect id="Rectangle-53" x="0" y="50" width="251.996094" height="4"></rect>
                    <rect id="Rectangle-52" x="0" y="60" width="209" height="4"></rect>
                    <rect id="Rectangle-51" x="0" y="70" width="219.269328" height="4"></rect>
                    <rect id="Rectangle-50" x="0" y="80" width="235.632711" height="4"></rect>
                    <rect id="Rectangle-49" x="0" y="90" width="251.996094" height="4"></rect>
                    <rect id="Rectangle-48" x="0" y="100" width="242.178064" height="4"></rect>
                    <rect id="Rectangle-47" x="0" y="110" width="229.087358" height="4"></rect>
                    <rect id="Rectangle-46" x="0" y="120" width="219.269328" height="4"></rect>
                    <rect id="Rectangle-45" x="0" y="130" width="243.814402" height="4"></rect>
                    <rect id="Rectangle-44" x="0" y="140" width="219.269328" height="4"></rect>
                    <rect id="Rectangle-43" x="0" y="150" width="235.632711" height="4"></rect>
                    <rect id="Rectangle-42" x="0" y="160" width="202.905946" height="4"></rect>
                    <rect id="Rectangle-41" x="0" y="200" width="219.269328" height="4"></rect>
                    <rect id="Rectangle-40" x="0" y="210" width="235.632711" height="4"></rect>
                    <rect id="Rectangle-39" x="0" y="220" width="251.996094" height="4"></rect>
                    <rect id="Rectangle-38" x="0" y="170" width="242.178064" height="4"></rect>
                    <rect id="Rectangle-37" x="0" y="180" width="229.087358" height="4"></rect>
                    <rect id="Rectangle-36" x="0" y="190" width="251.996094" height="4"></rect>
                    <rect id="Rectangle-75" x="0" y="230" width="242.178064" height="4"></rect>
                    <rect id="Rectangle-74" x="0" y="240" width="229.087358" height="4"></rect>
                    <rect id="Rectangle-73" x="0" y="250" width="251.996094" height="4"></rect>
                    <rect id="Rectangle-72" x="0" y="260" width="209" height="4"></rect>
                    <rect id="Rectangle-71" x="0" y="270" width="219.269328" height="4"></rect>
                    <rect id="Rectangle-70" x="0" y="280" width="235.632711" height="4"></rect>
                    <rect id="Rectangle-69" x="0" y="290" width="251.996094" height="4"></rect>
                    <rect id="Rectangle-68" x="0" y="300" width="242.178064" height="4"></rect>
                    <rect id="Rectangle-67" x="0" y="310" width="229.087358" height="4"></rect>
                    <rect id="Rectangle-66" x="0" y="320" width="219.269328" height="4"></rect>
                    <rect id="Rectangle-65" x="0" y="330" width="243.814402" height="4"></rect>
                    <rect id="Rectangle-64" x="0" y="340" width="219.269328" height="4"></rect>
                    <rect id="Rectangle-63" x="0" y="350" width="235.632711" height="4"></rect>
                </g>
            </g>
            <g id="print" transform="translate(0.000000, 99.000000)" sketch:type="MSShapeGroup">
                <g stroke="#FFFFFF" id="Rectangle-3" stroke-width="2" fill="#1AC2A9">
                    <rect x="0" y="0" width="304" height="408"></rect>
                </g>
                <g id="print-2" transform="translate(30.000000, 0.000000)" stroke="#FFFFFF" stroke-width="2" fill="#1AC2A9">
                    <rect id="Rectangle-3" x="0" y="0" width="274" height="408"></rect>
                </g>
                <g id="Polygon-1-+-Rectangle-13-+-Rectangle-14" transform="translate(108.000000, 167.000000)">
                    <polygon id="Polygon-1" stroke="#FFFFFF" stroke-width="2" fill="#1AC2A9" points="59 0 118.244186 37.058375 59 74.1167499 -0.244185687 37.058375 "></polygon>
                    <rect id="Rectangle-13" fill="#FFFFFF" x="27" y="37" width="64" height="2"></rect>
                    <rect id="Rectangle-14" fill="#FFFFFF" x="46" y="27" width="26" height="2"></rect>
                </g>
            </g>
            <g id="ereader-+-ereader-text" transform="translate(438.000000, 159.000000)" sketch:type="MSShapeGroup">
                <g id="ereader" stroke="#FFFFFF" stroke-width="2" fill="#1AC2A9">
                    <rect id="Rectangle-7" x="0" y="0" width="236" height="348" rx="4"></rect>
                    <rect id="Rectangle-8" x="24" y="36" width="188" height="256"></rect>
                </g>
                <g id="ereader-text" transform="translate(36.000000, 58.000000)" fill="#01AB94">
                    <rect id="Rectangle-11" x="0" y="0" width="79" height="4"></rect>
                    <rect id="Rectangle-12" x="0" y="10" width="64" height="4"></rect>
                    <rect id="Rectangle-16" x="0" y="30" width="148" height="4"></rect>
                    <rect id="Rectangle-17" x="0" y="40" width="140" height="4"></rect>
                    <rect id="Rectangle-18" x="0" y="50" width="154" height="4"></rect>
                    <rect id="Rectangle-25" x="0" y="60" width="119" height="4"></rect>
                    <rect id="Rectangle-24" x="0" y="70" width="134" height="4"></rect>
                    <rect id="Rectangle-23" x="0" y="80" width="144" height="4"></rect>
                    <rect id="Rectangle-22" x="0" y="90" width="154" height="4"></rect>
                    <rect id="Rectangle-21" x="0" y="100" width="148" height="4"></rect>
                    <rect id="Rectangle-20" x="0" y="110" width="140" height="4"></rect>
                    <rect id="Rectangle-19" x="0" y="120" width="134" height="4"></rect>
                    <rect id="Rectangle-32" x="0" y="130" width="149" height="4"></rect>
                    <rect id="Rectangle-31" x="0" y="140" width="134" height="4"></rect>
                    <rect id="Rectangle-30" x="0" y="150" width="144" height="4"></rect>
                    <rect id="Rectangle-29" x="0" y="160" width="124" height="4"></rect>
                    <rect id="Rectangle-35" x="0" y="200" width="134" height="4"></rect>
                    <rect id="Rectangle-34" x="0" y="210" width="144" height="4"></rect>
                    <rect id="Rectangle-33" x="0" y="220" width="154" height="4"></rect>
                    <rect id="Rectangle-28" x="0" y="170" width="148" height="4"></rect>
                    <rect id="Rectangle-27" x="0" y="180" width="140" height="4"></rect>
                    <rect id="Rectangle-26" x="0" y="190" width="154" height="4"></rect>
                </g>
            </g>
            <g id="phone-text-+-phone" transform="translate(596.000000, 259.000000)" sketch:type="MSShapeGroup">
                <g id="phone" stroke="#FFFFFF" stroke-width="2" fill="#1AC2A9">
                    <rect id="Rectangle-5" x="0" y="0" width="132" height="248" rx="4"></rect>
                    <rect id="Rectangle-6" x="15" y="34" width="102" height="184"></rect>
                    <rect id="Rectangle-17" x="60" y="227" width="12" height="12" rx="40"></rect>
                </g>
                <g id="phone-text" transform="translate(23.000000, 53.000000)" fill="#01AB94">
                    <rect id="Rectangle-11" x="0" y="0" width="79" height="4"></rect>
                    <rect id="Rectangle-12" x="0" y="10" width="64" height="4"></rect>
                    <rect id="Rectangle-16" x="0" y="32" width="80.7272727" height="4"></rect>
                    <rect id="Rectangle-17" x="0" y="42" width="76.3636364" height="4"></rect>
                    <rect id="Rectangle-18" x="0" y="52" width="84" height="4"></rect>
                    <rect id="Rectangle-25" x="0" y="62" width="64.9090909" height="4"></rect>
                    <rect id="Rectangle-24" x="0" y="72" width="73.0909091" height="4"></rect>
                    <rect id="Rectangle-23" x="0" y="82" width="78.5454545" height="4"></rect>
                    <rect id="Rectangle-22" x="0" y="92" width="84" height="4"></rect>
                    <rect id="Rectangle-21" x="0" y="102" width="80.7272727" height="4"></rect>
                    <rect id="Rectangle-20" x="0" y="112" width="76.3636364" height="4"></rect>
                    <rect id="Rectangle-19" x="0" y="122" width="73.0909091" height="4"></rect>
                    <rect id="Rectangle-32" x="0" y="132" width="81.2727273" height="4"></rect>
                    <rect id="Rectangle-31" x="0" y="142" width="73.0909091" height="4"></rect>
                    <rect id="Rectangle-30" x="0" y="152" width="78.5454545" height="4"></rect>
                </g>
            </g>
        </g>
    </g>
</svg>